# xmcd CD database file
#
# Track frame offsets:
#	150
#	30641
#	58913
#
# Disc length: 1163 seconds
#
# Revision: 0
# Processed by: cddbd v1.5.2PL0 Copyright (c) Steve Scherf et al.
# Submitted via: CDex 1.51
#
DISCID=22048903
DTITLE=The Sabbathian - Ritual Rites
DYEAR=2014
DGENRE=Doom Metal
TTITLE0=Ancient's Curse
TTITLE1=Ritual Rites
TTITLE2=Nightshade Eternal
EXTD=YEAR: 2014
EXTT0=
EXTT1=
EXTT2=
PLAYORDER=
